<svg width="150" height="150" viewBox="0 0 150 150" fill="none" xmlns="http://www.w3.org/2000/svg">
<rect width="150" height="150" rx="75" fill="#ED832F"/>
<path opacity="0.15" d="M74.1665 105C92.1158 105 106.667 103.881 106.667 102.5C106.667 101.119 92.1158 100 74.1665 100C56.2172 100 41.6665 101.119 41.6665 102.5C41.6665 103.881 56.2172 105 74.1665 105Z" fill="#45413C"/>
<path d="M104.167 94.167C104.167 97.8337 101.167 100.834 97.4998 100.834H50.8332C47.1665 100.834 44.1665 97.8337 44.1665 94.167V71.667C44.1665 55.167 57.6665 41.667 74.1665 41.667C90.6665 41.667 104.167 55.167 104.167 71.667V94.167Z" fill="#DAEDF7"/>
<path d="M74.1665 41.667C57.6665 41.667 44.1665 55.167 44.1665 71.667V80.0003C44.1665 63.5003 57.6665 50.0003 74.1665 50.0003C90.6665 50.0003 104.167 63.5003 104.167 80.0003V71.667C104.167 55.167 90.6665 41.667 74.1665 41.667Z" fill="white"/>
<path d="M104.167 94.167C104.167 97.8337 101.167 100.834 97.4998 100.834H50.8332C47.1665 100.834 44.1665 97.8337 44.1665 94.167V71.667C44.1665 55.167 57.6665 41.667 74.1665 41.667C90.6665 41.667 104.167 55.167 104.167 71.667V94.167Z" stroke="#45413C" stroke-miterlimit="10" stroke-linecap="round" stroke-linejoin="round"/>
<path d="M84.9999 100C84.9999 101.833 83.4999 103.333 81.6666 103.333H66.6666C64.8333 103.333 63.3333 101.833 63.3333 100V86.6668C63.3333 84.8335 64.8333 83.3335 66.6666 83.3335H81.6666C83.4999 83.3335 84.9999 84.8335 84.9999 86.6668V100Z" fill="#C0DCEB"/>
<path d="M63.3333 90.8335H84.9999V94.1668H63.3333V90.8335Z" fill="#ADC4D9"/>
<path d="M110 87.5L104.167 90.8333V70L110 73.3333V87.5Z" fill="#ADC4D9" stroke="#45413C" stroke-miterlimit="10" stroke-linecap="round" stroke-linejoin="round"/>
<path d="M38.3333 87.5L44.1666 90.8333V70L38.3333 73.3333V87.5Z" fill="#ADC4D9" stroke="#45413C" stroke-miterlimit="10" stroke-linecap="round" stroke-linejoin="round"/>
<path d="M74.1665 41.6669C74.4998 40.0002 78.3332 28.3336 91.6665 30.5002" stroke="#45413C" stroke-miterlimit="10" stroke-linecap="round" stroke-linejoin="round"/>
<path d="M94.1667 36.6668C96.4679 36.6668 98.3333 34.8013 98.3333 32.5002C98.3333 30.199 96.4679 28.3335 94.1667 28.3335C91.8655 28.3335 90 30.199 90 32.5002C90 34.8013 91.8655 36.6668 94.1667 36.6668Z" fill="#FF6242" stroke="#45413C" stroke-miterlimit="10" stroke-linecap="round" stroke-linejoin="round"/>
<path d="M84.9999 100C84.9999 101.833 83.4999 103.333 81.6666 103.333H66.6666C64.8333 103.333 63.3333 101.833 63.3333 100V86.6668C63.3333 84.8335 64.8333 83.3335 66.6666 83.3335H81.6666C83.4999 83.3335 84.9999 84.8335 84.9999 86.6668V100Z" stroke="#45413C" stroke-miterlimit="10" stroke-linecap="round" stroke-linejoin="round"/>
<path d="M84.9999 90.8335H63.3333V86.6668C63.3333 84.8335 64.8333 83.3335 66.6666 83.3335H81.6666C83.4999 83.3335 84.9999 84.8335 84.9999 86.6668V90.8335Z" fill="#FF6242" stroke="#45413C" stroke-miterlimit="10" stroke-linecap="round" stroke-linejoin="round"/>
<path d="M89.9999 46.3337C85.3333 43.5003 79.9999 41.667 74.1666 41.667C68.3333 41.667 62.9999 43.3337 58.3333 46.167V66.667H89.9999V46.3337Z" stroke="#45413C" stroke-miterlimit="10" stroke-linecap="round" stroke-linejoin="round"/>
<path d="M88.3333 76.6667C92.9357 76.6667 96.6667 72.9357 96.6667 68.3333C96.6667 63.731 92.9357 60 88.3333 60C83.731 60 80 63.731 80 68.3333C80 72.9357 83.731 76.6667 88.3333 76.6667Z" fill="#00DFEB" stroke="#45413C" stroke-miterlimit="10" stroke-linecap="round" stroke-linejoin="round"/>
<path d="M88.3333 71.6667C90.1743 71.6667 91.6667 70.1743 91.6667 68.3333C91.6667 66.4924 90.1743 65 88.3333 65C86.4924 65 85 66.4924 85 68.3333C85 70.1743 86.4924 71.6667 88.3333 71.6667Z" fill="#627B8C" stroke="#45413C" stroke-miterlimit="10" stroke-linecap="round" stroke-linejoin="round"/>
<path d="M59.9998 76.6667C64.6022 76.6667 68.3332 72.9357 68.3332 68.3333C68.3332 63.731 64.6022 60 59.9998 60C55.3975 60 51.6665 63.731 51.6665 68.3333C51.6665 72.9357 55.3975 76.6667 59.9998 76.6667Z" fill="#00DFEB" stroke="#45413C" stroke-miterlimit="10" stroke-linecap="round" stroke-linejoin="round"/>
<path d="M59.9998 71.6667C61.8408 71.6667 63.3332 70.1743 63.3332 68.3333C63.3332 66.4924 61.8408 65 59.9998 65C58.1589 65 56.6665 66.4924 56.6665 68.3333C56.6665 70.1743 58.1589 71.6667 59.9998 71.6667Z" fill="#627B8C" stroke="#45413C" stroke-miterlimit="10" stroke-linecap="round" stroke-linejoin="round"/>
</svg>
