<svg width="150" height="150" viewBox="0 0 150 150" fill="none" xmlns="http://www.w3.org/2000/svg">
<rect width="150" height="150" rx="75" fill="#ED832F"/>
<path fill-rule="evenodd" clip-rule="evenodd" d="M75.5559 47.668C77.1694 46.0215 79.418 45 81.9051 45H102.223C104.109 45 105.751 46.0273 106.626 47.548C106.803 47.8547 106.869 48.2092 106.869 48.5631V54.3897L108.572 91.9841C108.572 95.4907 105.729 98.3333 102.223 98.3333H48.8892C45.3827 98.3333 42.54 95.4907 42.54 91.9841L44.2426 54.3897V48.5631C44.2426 48.2092 44.3088 47.8547 44.4854 47.548C45.3612 46.0273 47.0029 45 48.8892 45H69.2067C71.6938 45 73.9425 46.0215 75.5559 47.668Z" fill="#B4ACBC"/>
<path d="M79.9553 103.413H107.299C109.408 103.413 111.111 101.691 111.111 99.59V96.9147C111.111 94.8134 109.408 90.7144 107.299 90.7144H43.8122C41.7028 90.7144 40 94.8134 40 96.9147V99.6152C40 101.717 41.7028 103.413 43.8122 103.413H71.1558C72.034 104.931 73.6754 105.952 75.5556 105.952C77.4357 105.952 79.0771 104.931 79.9553 103.413Z" fill="#0074BA"/>
<path fill-rule="evenodd" clip-rule="evenodd" d="M43.8122 52.6191H70.4762V55.1588H80.6349V52.6191H107.299C109.408 52.6191 111.111 54.3154 111.111 56.4167V97.0504C111.111 99.1515 109.408 100.873 107.299 100.873H79.9553C79.0771 102.391 77.4357 103.413 75.5556 103.413C73.6754 103.413 72.034 102.391 71.1558 100.873H43.8122C41.7028 100.873 40 99.1769 40 97.0755V56.4167C40 54.3154 41.7028 52.6191 43.8122 52.6191ZM79.3651 97.0636C79.3651 99.1675 77.6594 100.873 75.5556 100.873C73.4517 100.873 71.746 99.1675 71.746 97.0636C71.746 94.9597 73.4517 93.2541 75.5556 93.2541C77.6594 93.2541 79.3651 94.9597 79.3651 97.0636Z" fill="#00A6ED"/>
<path d="M67.9369 47.5396H49.6582C48.3845 47.5396 47.195 48.1761 46.4885 49.2359L42.54 55.1586V91.984C42.54 94.0879 44.2456 95.7935 46.3496 95.7935H104.762C106.866 95.7935 108.572 94.0879 108.572 91.984V55.1586L104.623 49.2359C103.917 48.1761 102.727 47.5396 101.454 47.5396H83.175V55.1586H67.9369V47.5396Z" fill="#B4ACBC"/>
<path d="M48.8886 47.5396H69.206C72.7126 47.5396 75.5552 50.3822 75.5552 53.8888V95.7935L74.4195 93.522C73.559 91.8011 71.8003 90.7141 69.8762 90.7141H48.8886C47.4859 90.7141 46.3489 89.5771 46.3489 88.1745V50.0792C46.3489 48.6766 47.4859 47.5396 48.8886 47.5396ZM81.9044 47.5396H102.222C103.625 47.5396 104.762 48.6766 104.762 50.0792V88.1745C104.762 89.5771 103.625 90.7141 102.222 90.7141H81.2342C79.4054 90.7141 77.7256 91.6962 76.8251 93.2716V50.0786C77.9834 48.5368 79.8275 47.5396 81.9044 47.5396Z" fill="#F3EEF8"/>
</svg>
